<svg fill="#000000" xmlns="http://www.w3.org/2000/svg"  viewBox="0 0 80 80" width="80px" height="80px"><path d="M 23 5 C 22.45 5 22 5.45 22 6 C 22 6.55 22.45 7 23 7 C 23.55 7 24 6.55 24 6 C 24 5.45 23.55 5 23 5 z M 23 9 C 22.45 9 22 9.45 22 10 C 22 10.55 22.45 11 23 11 C 23.55 11 24 10.55 24 10 C 24 9.45 23.55 9 23 9 z M 14.054688 9.0019531 C 13.798438 8.9894531 13.535078 9.0747656 13.330078 9.2597656 C 12.920078 9.6197656 12.889766 10.249922 13.259766 10.669922 L 13.25 10.669922 C 13.45 10.889922 13.729 11 14 11 C 14.24 11 14.478922 10.92 14.669922 10.75 C 15.079922 10.38 15.109234 9.7500781 14.740234 9.3300781 C 14.560234 9.1250781 14.310937 9.0144531 14.054688 9.0019531 z M 31.941406 9.0019531 C 31.685156 9.0144531 31.435 9.1250781 31.25 9.3300781 C 30.89 9.7500781 30.920078 10.38 31.330078 10.75 C 31.520078 10.92 31.76 11 32 11 C 32.28 11 32.55 10.889922 32.75 10.669922 C 33.109 10.249922 33.079922 9.6197656 32.669922 9.2597656 C 32.459922 9.0747656 32.197656 8.9894531 31.941406 9.0019531 z M 29.279297 11.984375 C 29.024297 11.998125 28.774844 12.110312 28.589844 12.320312 C 28.219844 12.730312 28.259922 13.360469 28.669922 13.730469 C 28.858922 13.900469 29.100078 13.980469 29.330078 13.980469 C 29.609078 13.980469 29.880078 13.870391 30.080078 13.650391 C 30.450078 13.240391 30.41 12.600234 30 12.240234 C 29.795 12.055234 29.534297 11.970625 29.279297 11.984375 z M 16.720703 11.988281 C 16.465703 11.973281 16.205 12.055234 16 12.240234 C 15.59 12.600234 15.549922 13.240391 15.919922 13.650391 C 16.119922 13.870391 16.390156 13.980469 16.660156 13.980469 C 16.899156 13.980469 17.140078 13.900469 17.330078 13.730469 C 17.740078 13.360469 17.780156 12.730313 17.410156 12.320312 C 17.225156 12.115312 16.975703 12.003281 16.720703 11.988281 z M 23 15 C 20.802666 15 19 16.802666 19 19 L 19 22 L 10.621094 22 C 9.6910622 22 8.8295136 22.280265 8.1601562 22.791016 C 7.490799 23.301767 7 24.093654 7 25 L 7 54.416016 C 6.4382306 54.772641 6 55.290634 6 55.996094 L 6 60.996094 C 6 62.089157 6.9069372 62.996094 8 62.996094 L 12.376953 62.996094 C 13.448497 66.466684 16.686703 69 20.5 69 C 24.313297 69 27.551503 66.466684 28.623047 62.996094 L 50.376953 62.996094 C 51.447998 66.467159 54.686287 69 58.5 69 C 62.313186 69 65.551473 66.466717 66.623047 62.996094 L 73 62.996094 C 74.093063 62.996094 75 62.089157 75 60.996094 L 75 55.996094 C 75 55.290556 74.561873 54.770668 74 54.414062 L 74 50.990234 L 74 47.056641 L 74 46.695312 C 74 46.45298 73.945703 46.22228 73.851562 46.011719 C 73.520863 44.770068 72.624553 43.697244 71.40625 42.992188 C 71.380416 42.971715 70.085721 41.94536 68.677734 40.792969 C 67.966756 40.211056 67.234384 39.601515 66.640625 39.089844 C 66.050024 38.580894 65.558097 38.111367 65.5 38.042969 C 65.499689 38.042603 65.494441 38.037509 65.494141 38.037109 L 54.800781 24.337891 C 53.616878 22.822344 51.624587 22 49.509766 22 L 27 22 L 27 19 C 27 16.802666 25.197334 15 23 15 z M 10 17 C 9.45 17 9 17.45 9 18 C 9 18.55 9.45 19 10 19 C 10.55 19 11 18.55 11 18 C 11 17.45 10.55 17 10 17 z M 14 17 C 13.45 17 13 17.45 13 18 C 13 18.55 13.45 19 14 19 C 14.55 19 15 18.55 15 18 C 15 17.45 14.55 17 14 17 z M 23 17 C 24.116666 17 25 17.883334 25 19 L 25 22 L 21 22 L 21 19 C 21 17.883334 21.883334 17 23 17 z M 32 17 C 31.45 17 31 17.45 31 18 C 31 18.55 31.45 19 32 19 C 32.55 19 33 18.55 33 18 C 33 17.45 32.55 17 32 17 z M 36 17 C 35.45 17 35 17.45 35 18 C 35 18.55 35.45 19 36 19 C 36.55 19 37 18.55 37 18 C 37 17.45 36.55 17 36 17 z M 10.621094 24 L 19 24 L 27 24 L 49.509766 24 C 51.088944 24 52.516512 24.661906 53.224609 25.568359 L 54.324219 26.976562 L 48 26.976562 C 46.984232 26.976562 46 27.729886 46 28.833984 L 46 39.126953 C 46 40.231384 46.983024 40.984375 48 40.984375 L 52 40.984375 L 65.787109 40.984375 C 66.306591 41.424641 66.85031 41.881982 67.412109 42.341797 C 68.849153 43.517971 70.191406 44.580078 70.191406 44.580078 L 70.255859 44.632812 L 70.330078 44.673828 C 70.505097 44.770207 70.660975 44.876531 70.808594 44.986328 L 70.082031 44.986328 C 68.750441 44.986328 67.480035 45.822748 67.109375 47.177734 L 67.109375 47.179688 C 66.581726 49.113866 68.086569 50.990234 70 50.990234 L 72 50.990234 L 72 53.992188 A 1 1 0 0 0 72 55.992188 L 72 55.996094 L 73 55.996094 L 73 60.996094 L 66.974609 60.996094 C 66.98446 60.829015 67 60.663621 67 60.494141 C 67 55.809052 63.182641 51.990234 58.5 51.990234 C 53.817198 51.990234 50 55.811005 50 60.496094 C 50 60.664917 50.015615 60.829658 50.025391 60.996094 L 28.974609 60.996094 C 28.98446 60.829018 29 60.663617 29 60.494141 C 29 55.809165 25.182939 51.990234 20.5 51.990234 C 15.817061 51.990234 12 55.809165 12 60.494141 C 12 60.663617 12.01554 60.829018 12.025391 60.996094 L 8 60.996094 L 8 55.996094 L 9 55.996094 L 9 55.992188 A 1 1 0 0 0 9 53.992188 L 9 25 C 9 24.801346 9.0958574 24.593858 9.375 24.380859 C 9.6541426 24.16786 10.103125 24 10.621094 24 z M 39 25.974609 A 1 1 0 0 0 39 27.974609 A 1 1 0 0 0 39 25.974609 z M 48 28.976562 L 55.884766 28.976562 L 63.699219 38.984375 L 52 38.984375 L 48 38.984375 L 48 28.976562 z M 39 29.978516 A 1 1 0 0 0 39 31.978516 A 1 1 0 0 0 39 29.978516 z M 22 30 L 22 35 L 17 35 L 17 37 L 22 37 L 22 42 L 24 42 L 24 37 L 29 37 L 29 35 L 24 35 L 24 30 L 22 30 z M 39 33.980469 A 1 1 0 0 0 39 35.980469 A 1 1 0 0 0 39 33.980469 z M 39 37.982422 A 1 1 0 0 0 39 39.982422 A 1 1 0 0 0 39 37.982422 z M 39 41.984375 A 1 1 0 0 0 39 43.984375 A 1 1 0 0 0 39 41.984375 z M 39 45.986328 A 1 1 0 0 0 39 47.986328 A 1 1 0 0 0 39 45.986328 z M 70.082031 46.986328 L 71.994141 46.986328 C 71.994964 47.009795 72 47.033233 72 47.056641 L 72 48.990234 L 70 48.990234 C 69.363431 48.990234 68.842711 48.424852 69.039062 47.705078 C 69.150402 47.298065 69.589622 46.986328 70.082031 46.986328 z M 39 49.990234 A 1 1 0 0 0 39 51.990234 A 1 1 0 0 0 39 49.990234 z M 20.5 53.990234 C 24.101338 53.990234 27 56.889323 27 60.494141 C 27 64.098959 24.101338 67 20.5 67 C 16.898662 67 14 64.098959 14 60.494141 C 14 56.889323 16.898662 53.990234 20.5 53.990234 z M 58.5 53.990234 C 62.101359 53.990234 65 56.889229 65 60.494141 C 65 64.099052 62.101198 67 58.5 67 C 54.898641 67 52 64.101005 52 60.496094 C 52 56.891182 54.898802 53.990234 58.5 53.990234 z M 31 53.992188 A 1 1 0 0 0 31 55.992188 A 1 1 0 0 0 31 53.992188 z M 35 53.992188 A 1 1 0 0 0 35 55.992188 A 1 1 0 0 0 35 53.992188 z M 39 53.992188 A 1 1 0 0 0 38.958984 55.990234 A 1 1 0 0 0 39 55.992188 A 1 1 0 0 0 39 53.992188 z M 43 53.992188 A 1 1 0 0 0 43 55.992188 A 1 1 0 0 0 43 53.992188 z M 47 53.992188 A 1 1 0 0 0 47 55.992188 A 1 1 0 0 0 47 53.992188 z M 68 53.992188 A 1 1 0 0 0 68 55.992188 A 1 1 0 0 0 68 53.992188 z M 20.5 57.619141 C 19.624667 57.619141 18.841642 57.983084 18.345703 58.541016 C 17.849764 59.098948 17.623047 59.802918 17.623047 60.494141 C 17.623047 61.185363 17.849764 61.891287 18.345703 62.449219 C 18.841642 63.007151 19.624667 63.371094 20.5 63.371094 C 21.375333 63.371094 22.158358 63.007151 22.654297 62.449219 C 23.150236 61.891287 23.376953 61.185363 23.376953 60.494141 C 23.376953 59.802918 23.150236 59.098948 22.654297 58.541016 C 22.158358 57.983084 21.375333 57.619141 20.5 57.619141 z M 58.5 57.619141 C 57.624667 57.619141 56.841642 57.983084 56.345703 58.541016 C 55.849764 59.098948 55.623047 59.802918 55.623047 60.494141 C 55.623047 61.185363 55.849764 61.891287 56.345703 62.449219 C 56.841642 63.007151 57.624667 63.371094 58.5 63.371094 C 59.375333 63.371094 60.158358 63.007151 60.654297 62.449219 C 61.150236 61.891287 61.376953 61.185363 61.376953 60.494141 C 61.376953 59.802918 61.150236 59.098948 60.654297 58.541016 C 60.158358 57.983084 59.375333 57.619141 58.5 57.619141 z M 20.5 59.619141 C 20.875333 59.619141 21.030762 59.723573 21.160156 59.869141 C 21.28955 60.014709 21.376953 60.247363 21.376953 60.494141 C 21.376953 60.740918 21.289553 60.975526 21.160156 61.121094 C 21.030762 61.266662 20.875333 61.371094 20.5 61.371094 C 20.124667 61.371094 19.969238 61.266662 19.839844 61.121094 C 19.71045 60.975526 19.623047 60.740918 19.623047 60.494141 C 19.623047 60.247363 19.710447 60.014709 19.839844 59.869141 C 19.969238 59.723573 20.124667 59.619141 20.5 59.619141 z M 58.5 59.619141 C 58.875333 59.619141 59.030762 59.723573 59.160156 59.869141 C 59.28955 60.014709 59.376953 60.247363 59.376953 60.494141 C 59.376953 60.740918 59.289553 60.975526 59.160156 61.121094 C 59.030762 61.266662 58.875333 61.371094 58.5 61.371094 C 58.124667 61.371094 57.969238 61.266662 57.839844 61.121094 C 57.71045 60.975526 57.623047 60.740918 57.623047 60.494141 C 57.623047 60.247363 57.710447 60.014709 57.839844 59.869141 C 57.969238 59.723573 58.124667 59.619141 58.5 59.619141 z"/></svg>