<svg fill="#000000" xmlns="http://www.w3.org/2000/svg"  viewBox="0 0 512 512" width="64px" height="64px"><path d="M 348.52734 18.445312 C 284.97334 18.445312 231.47091 62.26925 216.62891 121.28125 L 214.60156 120.11133 C 195.43856 109.04533 166.47941 92.322359 141.94141 89.068359 C 88.582406 82.000359 47.809375 105.68994 32.859375 152.46094 C 18.528375 197.29494 33.523109 247.88156 66.287109 265.22656 C 88.365109 276.91456 100.45205 284.26762 105.24805 292.01562 C 109.70005 299.20662 108.89555 308.77181 107.43555 326.13281 C 107.18255 329.14681 106.91148 332.37656 106.64648 335.85156 C 104.50248 363.88756 106.04614 392.83056 110.99414 417.35156 C 117.16314 447.91856 128.22409 471.6152 143.87109 487.7832 C 145.63809 489.6072 148.31745 491.12211 152.06445 492.41211 A 20.914 20.914 0 0 0 158.89258 493.55664 A 20.167 20.167 0 0 0 179.01367 469.75586 C 178.50267 464.43686 169.3882 362.0687 212.9082 309.0957 A 16.822 16.822 0 0 1 238.72461 309.22461 C 281.43561 362.51761 272.41625 464.42481 271.90625 469.75781 A 20.547 20.547 0 0 0 273.28906 481.51953 C 277.45406 491.12653 288.68942 495.9102 298.85742 492.4082 C 302.60342 491.1182 305.28378 489.6083 307.05078 487.7793 C 322.69778 471.6123 333.75873 447.91661 339.92773 417.34961 C 344.87473 392.83061 346.41939 363.88761 344.27539 335.84961 C 344.04039 332.77461 343.80317 329.89173 343.57617 327.17773 C 341.83217 305.99373 341.46906 297.74183 346.91406 290.42383 C 347.45106 290.42983 347.98544 290.44336 348.52344 290.44336 C 423.51444 290.44336 484.52344 229.43436 484.52344 154.44336 C 484.52344 79.452359 423.51834 18.445312 348.52734 18.445312 z M 343.37109 30.552734 A 124 124 0 0 1 472.52734 154.44531 A 124.14 124.14 0 0 1 348.52734 278.44531 A 124 124 0 0 1 343.37109 30.552734 z M 328.52734 78.445312 A 6 6 0 0 0 322.52734 84.445312 L 322.52734 128.44531 L 278.52734 128.44531 A 6 6 0 0 0 272.52734 134.44531 L 272.52734 174.44531 A 6 6 0 0 0 278.52734 180.44531 L 322.52734 180.44531 L 322.52734 224.44531 A 6 6 0 0 0 328.52734 230.44531 L 368.52734 230.44531 A 6 6 0 0 0 374.52734 224.44531 L 374.52734 180.44531 L 418.52734 180.44531 A 6 6 0 0 0 424.52734 174.44531 L 424.52734 134.44531 A 6 6 0 0 0 418.52734 128.44531 L 374.52734 128.44531 L 374.52734 84.445312 A 6 6 0 0 0 368.52734 78.445312 L 328.52734 78.445312 z M 334.52734 90.445312 L 362.52734 90.445312 L 362.52734 134.44531 A 6 6 0 0 0 368.52734 140.44531 L 412.52734 140.44531 L 412.52734 168.44531 L 368.52734 168.44531 A 6 6 0 0 0 362.52734 174.44531 L 362.52734 218.44531 L 334.52734 218.44531 L 334.52734 174.44531 A 6 6 0 0 0 328.52734 168.44531 L 284.52734 168.44531 L 284.52734 140.44531 L 328.52734 140.44531 A 6 6 0 0 0 334.52734 134.44531 L 334.52734 90.445312 z M 122.44336 99.777344 C 128.02731 99.745081 133.99113 100.11978 140.35938 100.96484 C 162.53637 103.90484 190.26066 119.91191 208.59766 130.50391 C 210.58566 131.65191 212.40533 132.70478 214.11133 133.67578 A 136.42 136.42 0 0 0 212.52539 154.44531 C 212.52539 224.37831 265.58555 282.14614 333.56055 289.61914 C 329.25455 299.40814 330.20009 310.86211 331.62109 328.16211 C 331.84209 330.85411 332.07755 333.71767 332.31055 336.76367 C 337.93555 410.33067 318.50036 458.69992 298.44336 479.41992 A 11.1 11.1 0 0 1 294.95117 481.0625 A 8.286 8.286 0 0 1 283.75195 471.70703 C 283.78195 471.54403 283.80722 471.37984 283.82422 471.21484 A 363.7 363.7 0 0 0 283.76367 408.92773 C 279.81967 362.40473 267.81784 326.3367 248.08984 301.7207 A 28.821 28.821 0 0 0 203.63867 301.47852 C 183.52067 325.96652 171.26394 362.04122 167.21094 408.69922 A 359.85 359.85 0 0 0 167.10156 471.21875 C 167.11956 471.38275 167.14383 471.54408 167.17383 471.70508 A 8.287 8.287 0 0 1 155.97461 481.0625 A 11.332 11.332 0 0 1 152.49609 479.43555 C 132.42409 458.70055 112.98538 410.32963 118.60938 336.76562 C 118.87337 333.32362 119.14353 330.12467 119.39453 327.13867 C 121.01353 307.88467 121.99412 296.26222 115.45312 285.69922 C 109.13312 275.49022 96.910391 267.86009 71.900391 254.62109 C 58.475391 247.51409 48.220391 233.2425 43.025391 214.4375 A 104.817 104.817 0 0 1 44.289062 156.11328 C 49.961281 138.36619 68.465202 100.08921 122.44336 99.777344 z"/></svg>