<svg fill="#000000" xmlns="http://www.w3.org/2000/svg"  viewBox="0 0 512 512" width="64px" height="64px"><path d="M 395.07422 43.226562 A 36.1988 36.1988 0 0 0 368.9375 53.794922 L 280.15234 142.58008 A 6.0000485 6.0000485 0 1 0 288.63672 151.06641 L 377.42383 62.279297 A 24.1988 24.1988 0 0 1 411.66211 96.482422 L 201.39453 306.74805 A 6 6 0 0 0 200.04492 308.8418 A 267.8272 267.8272 0 0 0 169.81055 349.60547 C 159.67625 366.33687 145.78086 383.71914 129.63086 399.86914 C 82.122859 447.37724 34.369663 465.83837 21.226562 452.69727 C 14.755662 446.22627 16.039103 430.97755 24.658203 411.90625 C 34.345703 390.47215 51.889641 366.45997 74.056641 344.29297 C 90.207341 328.14207 107.58701 314.24803 124.31641 304.11523 A 267.83 267.83 0 0 0 175.07617 264.625 L 256.10547 183.59766 A 6.0000485 6.0000485 0 0 0 247.61914 175.11133 L 166.5918 256.14062 A 255.8293 255.8293 0 0 1 118.10156 293.84961 C 100.55836 304.47511 82.394966 318.98434 65.572266 335.80664 C 42.407166 358.97164 23.993409 384.24169 13.724609 406.96289 C 2.6443094 431.47849 2.2948875 450.73434 12.742188 461.18164 C 17.805388 466.24484 24.934069 468.77198 33.730469 468.77148 C 43.085169 468.77098 54.325938 465.91167 66.960938 460.20117 C 89.681638 449.93217 114.95189 431.51862 138.11719 408.35352 C 154.93899 391.53182 169.44877 373.36767 180.07617 355.82227 A 255.8184 255.8184 0 0 1 206.29688 320.13672 L 274.69141 388.53125 A 39.22 39.22 0 0 0 302.51367 400.03711 A 39.23 39.23 0 0 0 330.33594 388.53125 L 495.35938 223.50977 A 39.3465 39.3465 0 0 0 495.35938 167.86523 L 425.53711 98.044922 A 36.1988 36.1988 0 0 0 395.07422 43.226562 z M 417.82031 107.29688 L 486.87305 176.34961 A 27.346 27.346 0 0 1 486.87305 215.02344 L 321.85156 380.04688 A 27.3762 27.3762 0 0 1 283.17773 380.04688 L 214.32227 311.19141 A 255.8184 255.8184 0 0 1 217.78516 307.33398 L 371.58984 153.52734 L 417.17578 199.11328 A 5.9821 5.9821 0 0 0 421.41797 200.86914 A 6 6 0 0 0 425.66016 190.62695 L 380.07617 145.04297 L 417.82031 107.29688 z M 271.34375 153.96094 A 6.0000132 6.0000132 0 0 0 267.01367 155.71875 L 260.75781 161.97461 A 6 6 0 0 0 265 172.2168 A 5.9821 5.9821 0 0 0 269.24414 170.45898 L 275.5 164.20312 A 6.0000132 6.0000132 0 0 0 271.34375 153.96094 z M 348.74414 214.32227 A 6.0000485 6.0000485 0 0 0 344.24023 224.55859 L 391.73047 272.04883 A 5.9816 5.9816 0 0 0 395.97266 273.80664 A 6 6 0 0 0 400.21484 263.5625 L 352.72461 216.07227 A 6.0000485 6.0000485 0 0 0 348.74414 214.32227 z M 282.82422 246.78125 A 6.0000485 6.0000485 0 0 0 278.31836 257.01953 L 325.80859 304.50977 A 5.9817 5.9817 0 0 0 330.05078 306.26562 A 6 6 0 0 0 334.29297 296.02344 L 286.80469 248.5332 A 6.0000485 6.0000485 0 0 0 282.82422 246.78125 z M 258.26172 304.80273 A 6.0000839 6.0000839 0 0 0 253.75781 315.03906 L 301.24805 362.5293 A 5.9817 5.9817 0 0 0 305.49023 364.28711 A 6 6 0 0 0 309.73242 354.04492 L 262.24219 306.55469 A 6.0000839 6.0000839 0 0 0 258.26172 304.80273 z"/></svg>