<svg fill="#000000" xmlns="http://www.w3.org/2000/svg"  viewBox="0 0 80 80" width="80px" height="80px"><path d="M 41.052734 15 C 38.195812 15 35.751439 16.54112 34.375 18.886719 C 33.195862 18.208949 31.875258 17.705078 30.380859 17.705078 C 27.048535 17.705078 24.133692 19.712515 22.902344 22.644531 C 18.943798 23.403688 15.620605 24.458966 13.201172 25.773438 C 10.676536 27.145064 8.9510401 28.870553 8.9414062 31.011719 L 3.0507812 48.683594 A 1.0001 1.0001 0 0 0 3 49 C 3 51.638451 4.0930309 54.082137 5.9882812 56.167969 C 7.8835317 58.253801 10.57182 60.018229 13.876953 61.466797 C 20.48722 64.363932 29.598279 66 40 66 C 50.401721 66 59.51278 64.363932 66.123047 61.466797 C 69.42818 60.018229 72.116468 58.253801 74.011719 56.167969 C 75.906969 54.082137 77 51.638451 77 49 A 1.0001 1.0001 0 0 0 76.949219 48.683594 L 71.058594 31.011719 C 71.053377 29.943698 70.583864 28.943502 69.837891 28.095703 C 69.087748 27.243167 68.058926 26.504922 66.794922 25.828125 C 64.377188 24.533576 61.056734 23.476417 57.103516 22.652344 C 55.874031 19.715822 52.954655 17.705078 49.619141 17.705078 C 48.811843 17.705078 48.009862 17.893161 47.210938 18.105469 C 45.793121 16.343995 43.680162 15 41.052734 15 z M 41.052734 17 C 43.254701 17 45.051708 18.16381 46.083984 19.710938 A 1.0001 1.0001 0 0 0 47.232422 20.103516 C 48.03788 19.834434 48.828005 19.705078 49.619141 19.705078 C 52.198299 19.705078 54.459687 21.251742 55.365234 23.478516 A 1.0001 1.0001 0 0 0 55.597656 24.154297 C 55.636213 24.299379 55.67206 24.446263 55.699219 24.595703 A 1.0001 1.0001 0 0 0 56.287109 25.333984 C 58.461285 26.276175 60.18564 27.371633 61.322266 28.517578 C 62.458892 29.663523 63 30.808266 63 32 A 1.0001 1.0001 0 1 0 65 32 C 65 30.185734 64.136312 28.51493 62.742188 27.109375 C 62.247909 26.611044 61.660503 26.150682 61.03125 25.707031 C 62.932692 26.281323 64.582734 26.911509 65.849609 27.589844 C 66.971731 28.190672 67.813174 28.823848 68.335938 29.417969 C 68.7635 29.903895 68.967892 30.335276 69.03125 30.751953 A 1.0005646 1.0005646 0 0 0 69.050781 31.316406 L 74.978516 49.101562 C 74.950996 51.156675 74.14095 53.050698 72.53125 54.822266 C 70.894 56.624153 68.441181 58.266958 65.320312 59.634766 C 59.078578 62.370381 50.190279 64 40 64 C 29.809721 64 20.921421 62.370381 14.679688 59.634766 C 11.55882 58.266958 9.1059995 56.624153 7.46875 54.822266 C 5.8590497 53.050698 5.0490087 51.156674 5.0214844 49.101562 L 10.113281 33.824219 C 10.600614 34.378762 11.211942 34.890986 11.916016 35.357422 C 13.674387 36.522311 16.083897 37.506782 18.996094 38.335938 C 24.75955 39.976894 32.49105 40.975307 40.740234 40.996094 L 40.947266 41.033203 L 41.015625 41 A 1.0001 1.0001 0 1 0 41 39 C 32.814348 39 25.115825 38.000754 19.542969 36.414062 C 16.756541 35.620717 14.501816 34.671439 13.019531 33.689453 C 11.688697 32.8078 11.075254 31.97154 10.962891 31.265625 A 1.0001 1.0001 0 0 0 10.974609 30.742188 C 11.140216 29.786269 12.120686 28.636105 14.154297 27.53125 C 15.434525 26.835706 17.105966 26.195998 19.033203 25.628906 C 18.380186 26.075324 17.773063 26.540868 17.261719 27.048828 C 15.862745 28.438543 15 30.125528 15 32 A 1.0001 1.0001 0 1 0 17 32 C 17 30.718472 17.540099 29.591082 18.671875 28.466797 C 19.803651 27.342512 21.530149 26.279888 23.712891 25.333984 A 1.0001 1.0001 0 0 0 24.300781 24.595703 C 24.328537 24.442979 24.364642 24.292699 24.404297 24.144531 A 1.0001 1.0001 0 0 0 24.628906 23.488281 C 25.531562 21.255815 27.79762 19.705078 30.380859 19.705078 C 31.792618 19.705078 33.0862 20.218021 34.138672 21.007812 A 1.0001 1.0001 0 0 0 35.664062 20.587891 C 36.569589 18.388633 38.582589 17 41.052734 17 z M 52.675781 26.173828 L 51.875 26.576172 L 51.716797 27.457031 L 52.330078 28.111328 L 52.675781 28.173828 L 53.476562 27.773438 L 53.634766 26.890625 L 53.023438 26.236328 L 52.675781 26.173828 z M 26.349609 27.513672 L 25.548828 27.916016 L 25.390625 28.796875 L 26.001953 29.451172 L 26.349609 29.513672 L 27.150391 29.113281 L 27.308594 28.230469 L 26.695312 27.576172 L 26.349609 27.513672 z M 40.445312 28.992188 L 39.644531 29.394531 L 39.486328 30.275391 L 40.097656 30.929688 L 40.445312 30.992188 L 41.246094 30.591797 L 41.404297 29.708984 L 40.791016 29.054688 L 40.445312 28.992188 z M 50.943359 29.748047 L 50.142578 30.148438 L 49.984375 31.03125 L 50.597656 31.685547 L 50.943359 31.748047 L 51.744141 31.345703 L 51.902344 30.462891 L 51.291016 29.808594 L 50.943359 29.748047 z M 29.210938 30.265625 L 28.410156 30.666016 L 28.251953 31.548828 L 28.863281 32.203125 L 29.210938 32.265625 L 30.011719 31.863281 L 30.169922 30.982422 L 29.556641 30.326172 L 29.210938 30.265625 z M 36.908203 30.837891 L 36.107422 31.238281 L 35.949219 32.121094 L 36.560547 32.775391 L 36.908203 32.837891 L 37.708984 32.435547 L 37.867188 31.552734 L 37.255859 30.898438 L 36.908203 30.837891 z M 32.986328 31.441406 L 32.185547 31.84375 L 32.027344 32.724609 L 32.640625 33.378906 L 32.986328 33.441406 L 33.789062 33.041016 L 33.945312 32.158203 L 33.333984 31.503906 L 32.986328 31.441406 z M 47.515625 31.533203 L 46.714844 31.933594 L 46.556641 32.816406 L 47.167969 33.470703 L 47.515625 33.533203 L 48.316406 33.130859 L 48.474609 32.25 L 47.861328 31.595703 L 47.515625 31.533203 z M 67.992188 33.285156 L 67.191406 33.685547 L 67.033203 34.568359 L 67.644531 35.222656 L 67.992188 35.285156 L 68.792969 34.882812 L 68.951172 34.001953 L 68.337891 33.347656 L 67.992188 33.285156 z M 64.507812 35.224609 L 63.707031 35.625 L 63.548828 36.507812 L 64.160156 37.162109 L 64.507812 37.224609 L 65.308594 36.822266 L 65.466797 35.939453 L 64.855469 35.285156 L 64.507812 35.224609 z M 60.732422 36.535156 L 59.931641 36.935547 L 59.773438 37.818359 L 60.384766 38.472656 L 60.732422 38.535156 L 61.533203 38.132812 L 61.691406 37.251953 L 61.080078 36.597656 L 60.732422 36.535156 z M 56.847656 37.486328 L 56.046875 37.888672 L 55.888672 38.769531 L 56.501953 39.423828 L 56.847656 39.486328 L 57.648438 39.085938 L 57.806641 38.203125 L 57.195312 37.548828 L 56.847656 37.486328 z M 52.90625 38.158203 L 52.105469 38.558594 L 51.947266 39.441406 L 52.558594 40.095703 L 52.90625 40.158203 L 53.707031 39.755859 L 53.865234 38.875 L 53.251953 38.21875 L 52.90625 38.158203 z M 48.935547 38.638672 L 48.134766 39.039062 L 47.976562 39.921875 L 48.587891 40.576172 L 48.935547 40.638672 L 49.736328 40.236328 L 49.894531 39.355469 L 49.28125 38.701172 L 48.935547 38.638672 z M 44.945312 38.914062 L 44.144531 39.316406 L 43.986328 40.197266 L 44.597656 40.851562 L 44.945312 40.914062 L 45.746094 40.513672 L 45.904297 39.630859 L 45.291016 38.976562 L 44.945312 38.914062 z M 30 46.019531 A 2.2750001 2.2750001 0 0 0 27.724609 48.294922 A 2.2750001 2.2750001 0 0 0 28.498047 50 A 2.2750001 2.2750001 0 0 0 27.724609 51.705078 A 2.2750001 2.2750001 0 0 0 30 53.980469 A 2.2750001 2.2750001 0 0 0 32.275391 51.705078 A 2.2750001 2.2750001 0 0 0 32.160156 51 L 45.837891 51 A 2.2750001 2.2750001 0 0 0 45.724609 51.705078 A 2.2750001 2.2750001 0 0 0 48 53.980469 A 2.2750001 2.2750001 0 0 0 50.275391 51.705078 A 2.2750001 2.2750001 0 0 0 49.5 50 A 2.2750001 2.2750001 0 0 0 50.275391 48.294922 A 2.2750001 2.2750001 0 0 0 48 46.019531 A 2.2750001 2.2750001 0 0 0 45.724609 48.294922 A 2.2750001 2.2750001 0 0 0 45.837891 49 L 32.158203 49 A 2.2750001 2.2750001 0 0 0 32.275391 48.294922 A 2.2750001 2.2750001 0 0 0 30 46.019531 z"/></svg>