<svg fill="#000000" xmlns="http://www.w3.org/2000/svg"  viewBox="0 0 80 80" width="80px" height="80px"><path d="M 24 7 A 3 3 0 0 0 21.148438 9.0761719 C 17.576897 9.2397516 14.890184 9.7068697 12.871094 10.830078 C 11.526843 11.577877 10.507232 12.657454 9.8808594 14.033203 C 9.2544872 15.408952 9 17.047615 9 19 C 9 23.128304 11.278459 31.783312 14.951172 39.716797 C 16.787528 43.683539 18.97268 47.431097 21.466797 50.244141 C 23.695763 52.758128 26.221071 54.565494 29 54.923828 L 29 55.5 C 29 65.099232 36.762918 72.896998 46.341797 72.984375 A 1.0001 1.0001 0 0 0 46.5 73 C 56.1534 73 64 65.1534 64 55.5 L 64 40.931641 C 67.93661 40.436276 71 37.067304 71 33 C 71 28.593567 67.406433 25 63 25 C 58.593567 25 55 28.593567 55 33 C 55 37.067304 58.06339 40.436276 62 40.931641 L 62 55.5 C 62 64.0726 55.0726 71 46.5 71 C 37.9274 71 31 64.0726 31 55.5 L 31 54.923828 C 33.778929 54.565494 36.304237 52.758128 38.533203 50.244141 C 41.02732 47.431097 43.212472 43.683539 45.048828 39.716797 C 48.721541 31.783312 51 23.128304 51 19 C 51 17.047615 50.745513 15.408952 50.119141 14.033203 C 49.492768 12.657454 48.473157 11.577877 47.128906 10.830078 C 45.109816 9.7068697 42.423103 9.2397516 38.851562 9.0761719 A 3 3 0 0 0 36 7 A 3 3 0 0 0 33 10 A 3 3 0 0 0 36 13 A 3 3 0 0 0 38.792969 11.087891 C 42.205157 11.265544 44.623048 11.725214 46.15625 12.578125 C 47.181249 13.148326 47.838638 13.85253 48.298828 14.863281 C 48.759018 15.874032 49 17.224385 49 19 C 49 22.118295 47.052219 30.072567 43.875 37.400391 A 1.0001 1.0001 0 0 0 43.6875 37.830078 C 43.534048 38.177387 43.393329 38.531641 43.234375 38.875 C 43.040867 39.293001 42.828253 39.692301 42.626953 40.103516 L 42.466797 39.931641 L 42.119141 39.869141 L 41.318359 40.271484 L 41.160156 41.154297 L 41.771484 41.808594 L 41.777344 41.808594 C 40.335293 44.526392 38.733453 47.002757 37.037109 48.916016 C 34.745664 51.500472 32.345905 53 30 53 C 27.654095 53 25.254336 51.500472 22.962891 48.916016 C 21.248564 46.982475 19.629641 44.476435 18.175781 41.724609 L 18.679688 41.470703 L 18.837891 40.589844 L 18.224609 39.935547 L 17.878906 39.873047 L 17.382812 40.123047 C 17.178182 39.705406 16.962217 39.299661 16.765625 38.875 C 16.605704 38.529551 16.462945 38.173662 16.308594 37.824219 A 1.0001 1.0001 0 0 0 16.126953 37.402344 C 12.949126 30.07387 11 22.11863 11 19 C 11 17.224385 11.240982 15.874032 11.701172 14.863281 C 12.161362 13.85253 12.818751 13.148326 13.84375 12.578125 C 15.376341 11.725554 17.793089 11.265698 21.203125 11.087891 A 3 3 0 0 0 24 13 A 3 3 0 0 0 27 10 A 3 3 0 0 0 24 7 z M 63 27 C 66.325553 27 69 29.674447 69 33 C 69 36.325553 66.325553 39 63 39 C 59.674447 39 57 36.325553 57 33 C 57 29.674447 59.674447 27 63 27 z M 63 29 C 60.802706 29 59 30.802706 59 33 C 59 35.197294 60.802706 37 63 37 C 65.197294 37 67 35.197294 67 33 C 67 30.802706 65.197294 29 63 29 z M 63 31 C 64.116414 31 65 31.883586 65 33 C 65 34.116414 64.116414 35 63 35 C 61.883586 35 61 34.116414 61 33 C 61 31.883586 61.883586 31 63 31 z M 20.910156 42.236328 L 20.109375 42.638672 L 19.951172 43.519531 L 20.564453 44.173828 L 20.910156 44.236328 L 21.710938 43.835938 L 21.869141 42.953125 L 21.257812 42.298828 L 20.910156 42.236328 z M 39.091797 42.242188 L 38.291016 42.644531 L 38.132812 43.525391 L 38.746094 44.181641 L 39.091797 44.242188 L 39.892578 43.841797 L 40.050781 42.958984 L 39.439453 42.304688 L 39.091797 42.242188 z M 24.349609 43.949219 L 23.548828 44.349609 L 23.390625 45.232422 L 24.003906 45.886719 L 24.349609 45.949219 L 25.150391 45.546875 L 25.308594 44.666016 L 24.697266 44.011719 L 24.349609 43.949219 z M 35.65625 43.964844 L 34.855469 44.367188 L 34.697266 45.248047 L 35.308594 45.904297 L 35.65625 45.964844 L 36.457031 45.564453 L 36.615234 44.681641 L 36.003906 44.027344 L 35.65625 43.964844 z M 28.080078 44.861328 L 27.279297 45.263672 L 27.121094 46.144531 L 27.734375 46.800781 L 28.080078 46.861328 L 28.880859 46.460938 L 29.039062 45.578125 L 28.427734 44.923828 L 28.080078 44.861328 z M 31.921875 44.871094 L 31.121094 45.273438 L 30.962891 46.15625 L 31.574219 46.810547 L 31.921875 46.871094 L 32.722656 46.470703 L 32.880859 45.587891 L 32.269531 44.933594 L 31.921875 44.871094 z"/></svg>