<svg fill="#000000" xmlns="http://www.w3.org/2000/svg"  viewBox="0 0 100 100" width="100px" height="100px"><path d="M 49.5 5 C 45.866 5 42.832391 7.5712031 42.150391 11.033203 C 41.934391 11.012203 41.716 11 41.5 11 C 38.801752 11 36.483696 12.653701 35.501953 15 L 28 15 C 23.589 15 20 18.589 20 23 L 20 77 C 20 81.411 23.589 85 28 85 L 72 85 C 76.411 85 80 81.411 80 77 L 80 23 C 80 18.589 76.411 15 72 15 L 63.498047 15 C 62.516304 12.653701 60.198248 11 57.5 11 C 57.284 11 57.065609 11.012203 56.849609 11.033203 C 56.167609 7.5712031 53.134 5 49.5 5 z M 49.5 7 C 52.449 7 54.858328 9.3117656 54.986328 12.259766 C 55.000328 12.566766 55.153344 12.847344 55.402344 13.027344 C 55.650344 13.205344 55.967719 13.259734 56.261719 13.177734 C 56.672719 13.059734 57.089 13 57.5 13 C 59.981 13 62 15.019 62 17.5 C 62 17.668 61.991656 17.835 61.972656 18 L 37.027344 18 C 37.009344 17.835 37 17.668 37 17.5 C 37 15.019 39.019 13 41.5 13 C 41.911 13 42.327281 13.059734 42.738281 13.177734 C 43.032281 13.259734 43.348656 13.207344 43.597656 13.027344 C 43.846656 12.847344 44.000672 12.566766 44.013672 12.259766 C 44.141672 9.3117656 46.551 7 49.5 7 z M 49.5 10 C 48.122 10 47 11.121 47 12.5 C 47 13.879 48.122 15 49.5 15 C 50.878 15 52 13.879 52 12.5 C 52 11.121 50.878 10 49.5 10 z M 49.5 11 C 50.327 11 51 11.673 51 12.5 C 51 13.327 50.327 14 49.5 14 C 48.673 14 48 13.327 48 12.5 C 48 11.673 48.673 11 49.5 11 z M 28 17 L 35.025391 17 C 35.012709 17.165472 35 17.331335 35 17.5 C 35 18.102 35.082141 18.697484 35.244141 19.271484 C 35.366141 19.702484 35.760031 20 36.207031 20 L 62.792969 20 C 63.239969 20 63.633859 19.702484 63.755859 19.271484 C 63.917859 18.697484 64 18.102 64 17.5 C 64 17.331335 63.987291 17.165472 63.974609 17 L 72 17 C 75.309 17 78 19.691 78 23 L 78 77 C 78 80.309 75.309 83 72 83 L 28 83 C 24.691 83 22 80.309 22 77 L 22 23 C 22 19.691 24.691 17 28 17 z M 30.5 23 C 28.57 23 27 24.57 27 26.5 L 27 74.5 C 27 76.43 28.57 78 30.5 78 L 69.5 78 C 71.43 78 73 76.43 73 74.5 L 73 70.5 C 73 70.224 72.776 70 72.5 70 C 72.224 70 72 70.224 72 70.5 L 72 74.5 C 72 75.879 70.878 77 69.5 77 L 30.5 77 C 29.122 77 28 75.879 28 74.5 L 28 26.5 C 28 25.121 29.122 24 30.5 24 L 69.5 24 C 70.878 24 72 25.121 72 26.5 L 72 55.5 C 72 55.776 72.224 56 72.5 56 C 72.776 56 73 55.776 73 55.5 L 73 26.5 C 73 24.57 71.43 23 69.5 23 L 30.5 23 z M 37.5 32 A 0.50005 0.50005 0 0 0 37 32.5 L 37 36 L 33.5 36 A 0.50005 0.50005 0 0 0 33 36.5 L 33 40.5 A 0.50005 0.50005 0 0 0 33.5 41 L 37 41 L 37 44.5 A 0.50005 0.50005 0 0 0 37.5 45 L 41.5 45 A 0.50005 0.50005 0 0 0 42 44.5 L 42 41 L 45.5 41 A 0.50005 0.50005 0 0 0 46 40.5 L 46 36.5 A 0.50005 0.50005 0 0 0 45.5 36 L 42 36 L 42 32.5 A 0.50005 0.50005 0 0 0 41.5 32 L 37.5 32 z M 50.5 32 A 0.50005 0.50005 0 1 0 50.5 33 L 58.5 33 A 0.50005 0.50005 0 1 0 58.5 32 L 50.5 32 z M 61.5 32 A 0.50005 0.50005 0 1 0 61.5 33 L 66.5 33 A 0.50005 0.50005 0 1 0 66.5 32 L 61.5 32 z M 38 33 L 41 33 L 41 36.5 A 0.50005 0.50005 0 0 0 41.5 37 L 45 37 L 45 40 L 41.5 40 A 0.50005 0.50005 0 0 0 41 40.5 L 41 44 L 38 44 L 38 40.5 A 0.50005 0.50005 0 0 0 37.5 40 L 34 40 L 34 37 L 37.5 37 A 0.50005 0.50005 0 0 0 38 36.5 L 38 33 z M 50.5 38 A 0.50005 0.50005 0 1 0 50.5 39 L 66.5 39 A 0.50005 0.50005 0 1 0 66.5 38 L 50.5 38 z M 50.5 44 A 0.50005 0.50005 0 1 0 50.5 45 L 55.5 45 A 0.50005 0.50005 0 1 0 55.5 44 L 50.5 44 z M 58.5 44 A 0.50005 0.50005 0 1 0 58.5 45 L 66.5 45 A 0.50005 0.50005 0 1 0 66.5 44 L 58.5 44 z M 33.5 50 A 0.50005 0.50005 0 1 0 33.5 51 L 38.5 51 A 0.50005 0.50005 0 1 0 38.5 50 L 33.5 50 z M 41.5 50 A 0.50005 0.50005 0 1 0 41.5 51 L 51.5 51 A 0.50005 0.50005 0 1 0 51.5 50 L 41.5 50 z M 54.5 50 A 0.50005 0.50005 0 1 0 54.5 51 L 66.5 51 A 0.50005 0.50005 0 1 0 66.5 50 L 54.5 50 z M 33.5 56 A 0.50005 0.50005 0 1 0 33.5 57 L 43.5 57 A 0.50005 0.50005 0 1 0 43.5 56 L 33.5 56 z M 46.5 56 A 0.50005 0.50005 0 1 0 46.5 57 L 66.5 57 A 0.50005 0.50005 0 1 0 66.5 56 L 46.5 56 z M 72.5 58 C 72.224 58 72 58.224 72 58.5 L 72 62.5 C 72 62.776 72.224 63 72.5 63 C 72.776 63 73 62.776 73 62.5 L 73 58.5 C 73 58.224 72.776 58 72.5 58 z M 33.5 62 A 0.50005 0.50005 0 1 0 33.5 63 L 39.5 63 A 0.50005 0.50005 0 1 0 39.5 62 L 33.5 62 z M 42.5 62 A 0.50005 0.50005 0 1 0 42.5 63 L 53.5 63 A 0.50005 0.50005 0 1 0 53.5 62 L 42.5 62 z M 56.5 62 A 0.50005 0.50005 0 1 0 56.5 63 L 66.5 63 A 0.50005 0.50005 0 1 0 66.5 62 L 56.5 62 z M 72.5 65 C 72.224 65 72 65.224 72 65.5 L 72 67.5 C 72 67.776 72.224 68 72.5 68 C 72.776 68 73 67.776 73 67.5 L 73 65.5 C 73 65.224 72.776 65 72.5 65 z M 33.5 68 A 0.50005 0.50005 0 1 0 33.5 69 L 44.5 69 A 0.50005 0.50005 0 1 0 44.5 68 L 33.5 68 z M 47.5 68 A 0.50005 0.50005 0 1 0 47.5 69 L 66.5 69 A 0.50005 0.50005 0 1 0 66.5 68 L 47.5 68 z"/></svg>