<svg fill="#000000" xmlns="http://www.w3.org/2000/svg"  viewBox="0 0 480.009 480.009" width="60px" height="60px"><path d="M 373.7832 0.00390625 C 371.73595 0.00390625 369.68945 0.78615625 368.12695 2.3476562 C 365.00295 5.4726562 365.00295 10.535156 368.12695 13.660156 L 382.11523 27.648438 L 358.30469 51.458984 C 355.18069 54.582984 355.18069 59.648438 358.30469 62.773438 C 361.42969 65.896437 366.49414 65.898438 369.61914 62.773438 L 393.42969 38.962891 L 441.05078 86.583984 L 394.18555 133.44922 L 275.16992 14.435547 C 262.05292 1.3185469 240.70784 1.3205469 227.58984 14.435547 L 221.54492 20.482422 C 208.39692 33.629422 208.39492 54.9125 221.54492 68.0625 L 384.38086 230.90039 L 222.30078 392.98242 C 215.40278 399.87842 204.2437 399.87942 197.3457 392.98242 L 87.03125 282.66797 C 80.13525 275.77397 80.13525 264.60984 87.03125 257.71484 L 223.4707 121.27344 C 226.5957 118.14844 226.5957 113.08594 223.4707 109.96094 C 220.3467 106.83794 215.2822 106.83794 212.1582 109.96094 L 75.716797 246.40039 C 62.568797 259.54739 62.565797 280.83242 75.716797 293.98242 L 82.904297 301.16992 L 65.894531 318.18164 C 56.109531 327.96664 56.109531 343.88883 65.894531 353.67383 L 90.460938 378.23828 L 2.3515625 466.34766 C -2.7024375 471.40266 0.94576562 480.00391 8.0097656 480.00391 C 10.056766 480.00391 12.104016 479.22216 13.666016 477.66016 L 101.77539 389.55273 L 126.3418 414.11914 C 131.1398 418.91714 137.90016 421.71917 145.03516 421.45117 C 149.45016 421.28517 152.89452 417.57125 152.72852 413.15625 C 152.56252 408.74025 148.85959 405.27789 144.43359 405.46289 C 141.87459 405.53689 139.4643 404.61469 137.6543 402.80469 L 77.208984 342.35742 C 73.662984 338.81142 73.662984 333.04014 77.208984 329.49414 L 94.220703 312.48438 L 186.0332 404.29688 C 199.1822 417.44488 220.46523 417.44688 233.61523 404.29688 L 401.35352 236.55859 C 404.47752 233.43359 404.47752 228.36914 401.35352 225.24414 L 232.85742 56.748047 C 225.96142 49.853047 225.96142 38.689922 232.85742 31.794922 L 238.90234 25.75 C 245.78134 18.87 256.97642 18.869 263.85742 25.75 L 454.26367 216.1543 C 461.14367 223.0353 461.14267 234.22937 454.26367 241.10938 L 448.21875 247.1543 C 444.21575 251.1583 438.6998 252.972 433.0918 252.125 C 428.7158 251.47 424.64728 254.4767 423.98828 258.8457 C 423.33128 263.2147 426.33998 267.28827 430.70898 267.94727 C 441.25398 269.53227 452.02125 265.97975 459.53125 258.46875 L 465.57617 252.42383 C 478.69317 239.30583 478.69317 217.9608 465.57617 204.8418 L 405.49805 144.76367 L 452.36328 97.898438 L 466.35156 111.88672 C 469.47756 115.01072 474.54102 115.00972 477.66602 111.88672 C 480.79002 108.76172 480.79002 103.69727 477.66602 100.57227 L 379.44141 2.3476562 C 377.87891 0.78615625 375.83045 0.00390625 373.7832 0.00390625 z M 239.00977 149.00586 C 236.96239 149.00573 234.91406 149.78616 233.35156 151.34766 L 139.35156 245.34766 C 134.29756 250.40266 137.94577 259.00391 145.00977 259.00391 C 147.05677 259.00391 149.10402 258.22216 150.66602 256.66016 L 153.99414 253.33203 L 161.33789 260.67578 C 162.89989 262.23778 164.94614 263.01953 166.99414 263.01953 C 174.05814 263.01953 177.70439 254.41633 172.65039 249.36133 L 165.30859 242.01953 L 192.00195 215.32617 L 204.3457 227.66992 C 205.9077 229.23192 207.95395 230.01172 210.00195 230.01172 C 217.06595 230.01172 220.7122 221.40847 215.6582 216.35547 L 203.31641 204.01367 L 230.00977 177.31836 L 237.35352 184.66211 C 238.91552 186.22411 240.96177 187.00586 243.00977 187.00586 C 250.08477 187.00586 253.71197 178.39066 248.66797 173.34766 L 241.32422 166.00586 L 244.66797 162.66211 C 247.79097 159.53611 247.79002 154.47266 244.66602 151.34766 C 243.10402 149.78666 241.05714 149.00598 239.00977 149.00586 z"/></svg>